<svg xmlns="http://www.w3.org/2000/svg" viewBox="0 0 320 180" width="320" height="180" role="img" aria-label="news-update">
  <defs>
    <radialGradient id="vig" cx="50%" cy="44%" r="78%">
      <stop offset="0.5" stop-color="#000" stop-opacity="0"/>
      <stop offset="1" stop-color="#000" stop-opacity="0.55"/>
    </radialGradient>
    <filter id="grain" x="0" y="0" width="100%" height="100%">
      <feTurbulence type="fractalNoise" baseFrequency="0.85" numOctaves="3" stitchTiles="stitch"/>
      <feColorMatrix type="saturate" values="0"/>
    </filter>
    <filter id="soft" x="-50%" y="-50%" width="200%" height="200%">
      <feGaussianBlur stdDeviation="7"/>
    </filter>
    <filter id="soft2" x="-50%" y="-50%" width="200%" height="200%">
      <feGaussianBlur stdDeviation="16"/>
    </filter>
    <filter id="tiny" x="-50%" y="-50%" width="200%" height="200%">
      <feGaussianBlur stdDeviation="2.2"/>
    </filter>
    <linearGradient id="studio" x1="0" y1="0" x2="0" y2="1">
      <stop offset="0" stop-color="#1b1f2a"/><stop offset="1" stop-color="#0a0c12"/>
    </linearGradient>
    <linearGradient id="l3" x1="0" y1="0" x2="1" y2="0">
      <stop offset="0" stop-color="#c81e26"/><stop offset="1" stop-color="#7d0d14"/>
    </linearGradient>
    <radialGradient id="globe" cx="38%" cy="32%" r="72%">
      <stop offset="0" stop-color="#5ec8ff"/><stop offset="1" stop-color="#0d3b66"/>
    </radialGradient>
  </defs>

  <rect width="320" height="180" fill="url(#studio)"/>
  <g opacity="0.16" filter="url(#soft2)"><ellipse cx="70" cy="30" rx="52" ry="26" fill="#5ec8ff"/><ellipse cx="256" cy="34" rx="46" ry="24" fill="#c81e26"/></g>
  <g>
    <circle cx="214" cy="74" r="38" fill="url(#globe)" opacity="0.92"/>
    <g fill="none" stroke="#bfe6ff" stroke-width="1.3" opacity="0.55">
      <ellipse cx="214" cy="74" rx="38" ry="14"/><ellipse cx="214" cy="74" rx="15" ry="38"/><ellipse cx="214" cy="74" rx="29" ry="38"/>
    </g>
    <path d="M196 60 q10 6 18 2 q8 -4 14 4 q-8 12 -22 10 q-14 -2 -10 -16 z" fill="#3ea06a" opacity="0.8"/>
    <path d="M206 92 q12 -2 18 6 q-10 8 -20 2 z" fill="#3ea06a" opacity="0.7"/>
  </g>
  <g fill="#0e1119">
    <path d="M40 180 q22 -74 52 -74 q30 0 52 74 z"/>
    <circle cx="92" cy="74" r="21"/>
    <rect x="86" y="90" width="12" height="12"/>
  </g>
  <path d="M107 59 a21 21 0 0 1 0 30" fill="none" stroke="#5ec8ff" stroke-width="4.5" opacity="0.35" stroke-linecap="round"/>
  <rect x="20" y="136" width="200" height="24" rx="3" fill="url(#l3)"/>
  <rect x="20" y="136" width="7" height="24" fill="#fff" opacity="0.9"/>
  <g fill="#fff" opacity="0.92"><rect x="36" y="143" width="86" height="4.5" rx="2.2"/><rect x="36" y="151" width="140" height="3.5" rx="1.7" opacity="0.65"/></g>
  <rect x="20" y="164" width="280" height="8" rx="2" fill="#161b26"/>
  <circle cx="286" cy="20" r="5" fill="#ff3b30"/><circle cx="286" cy="20" r="9" fill="#ff3b30" opacity="0.3"/>
  <rect width="320" height="180" fill="url(#vig)"/>
  <rect width="320" height="180" filter="url(#grain)" opacity="0.14" style="mix-blend-mode:overlay"/>
</svg>
